<svg width="37" height="36" viewBox="0 0 37 36" fill="none" xmlns="http://www.w3.org/2000/svg">
<path opacity="0.4" d="M24.86 3H12.14C8 3 6.5 4.5 6.5 8.715V27.285C6.5 31.5 8 33 12.14 33H24.845C29 33 30.5 31.5 30.5 27.285V8.715C30.5 4.5 29 3 24.86 3Z" fill="#F36223"/>
<path d="M21.5 9.375H15.5C14.885 9.375 14.375 8.865 14.375 8.25C14.375 7.635 14.885 7.125 15.5 7.125H21.5C22.115 7.125 22.625 7.635 22.625 8.25C22.625 8.865 22.115 9.375 21.5 9.375Z" fill="#F36223"/>
<path d="M18.5 28.9499C19.9497 28.9499 21.125 27.7747 21.125 26.3249C21.125 24.8752 19.9497 23.7 18.5 23.7C17.0503 23.7 15.875 24.8752 15.875 26.3249C15.875 27.7747 17.0503 28.9499 18.5 28.9499Z" fill="#F36223"/>
</svg>
