<svg width="37" height="36" viewBox="0 0 37 36" fill="none" xmlns="http://www.w3.org/2000/svg">
<path opacity="0.4" d="M14.985 26.97C21.6041 26.97 26.97 21.6041 26.97 14.985C26.97 8.36587 21.6041 3 14.985 3C8.36587 3 3 8.36587 3 14.985C3 21.6041 8.36587 26.97 14.985 26.97Z" fill="#F36223"/>
<path d="M33.4551 23.9851C33.4551 28.9351 29.4351 32.9551 24.4851 32.9551C21.4251 32.9551 18.7401 31.4251 17.1201 29.1001C23.6601 28.3651 28.8651 23.1601 29.6001 16.6201C31.9251 18.2401 33.4551 20.9251 33.4551 23.9851Z" fill="#F36223"/>
<path d="M11.8824 19V16.036H11.1864V15.148H11.8824V14.284H11.1864V13.396H11.8824V10.432H13.7664L14.7024 13.396H15.7944V10.432H17.1264V13.396H17.8104V14.284H17.1264V15.148H17.8104V16.036H17.1264V19H15.2304L14.2704 16.036H13.2144V19H11.8824ZM13.2144 15.148H14.0064L13.7424 14.284H13.1904L13.2144 15.148ZM15.8304 17.128H15.8904L15.8424 16.036H15.5184L15.8304 17.128ZM13.1664 13.396H13.5024L13.1544 12.244H13.1064L13.1664 13.396ZM15.2664 15.148H15.8184L15.7944 14.284H14.9904L15.2664 15.148Z" fill="#F36223"/>
</svg>
