<svg width="37" height="36" viewBox="0 0 37 36" fill="none" xmlns="http://www.w3.org/2000/svg">
<path opacity="0.4" d="M33.455 9.615V19.365H3.5V9.615C3.5 5.97 6.47 3 10.115 3H26.84C30.485 3 33.455 5.97 33.455 9.615Z" fill="#F36223"/>
<path d="M3.5 19.3799V19.6799C3.5 23.3399 6.47 26.2949 10.115 26.2949H15.875C16.7 26.2949 17.375 26.9699 17.375 27.7949V29.2499C17.375 30.0749 16.7 30.7499 15.875 30.7499H12.245C11.63 30.7499 11.12 31.2599 11.12 31.8749C11.12 32.4899 11.615 32.9999 12.245 32.9999H24.77C25.385 32.9999 25.895 32.4899 25.895 31.8749C25.895 31.2599 25.385 30.7499 24.77 30.7499H21.14C20.315 30.7499 19.64 30.0749 19.64 29.2499V27.7949C19.64 26.9699 20.315 26.2949 21.14 26.2949H26.855C30.515 26.2949 33.47 23.3249 33.47 19.6799V19.3799H3.5V19.3799Z" fill="#F36223"/>
</svg>
