<svg width="36" height="36" viewBox="0 0 36 36" fill="none" xmlns="http://www.w3.org/2000/svg">
<path opacity="0.4" d="M11.4751 31.365C11.4301 31.365 11.3701 31.395 11.3251 31.395C8.41509 29.955 6.04509 27.57 4.59009 24.66C4.59009 24.615 4.62009 24.555 4.62009 24.51C6.45009 25.05 8.34009 25.455 10.2151 25.77C10.5451 27.66 10.9351 29.535 11.4751 31.365Z" fill="#F36223"/>
<path opacity="0.4" d="M31.4101 24.675C29.9251 27.66 27.4501 30.075 24.4351 31.53C25.0051 29.625 25.4851 27.705 25.8001 25.77C27.6901 25.455 29.5501 25.05 31.3801 24.51C31.3651 24.57 31.4101 24.63 31.4101 24.675Z" fill="#F36223"/>
<path opacity="0.4" d="M31.5301 11.565C29.6401 10.995 27.7351 10.53 25.8001 10.2C25.4851 8.26497 25.0201 6.34497 24.4351 4.46997C27.5401 5.95497 30.0451 8.45997 31.5301 11.565Z" fill="#F36223"/>
<path opacity="0.4" d="M11.475 4.63509C10.935 6.46509 10.545 8.32509 10.23 10.2151C8.29497 10.5151 6.37497 10.9951 4.46997 11.5651C5.92497 8.55009 8.33997 6.07509 11.325 4.59009C11.37 4.59009 11.43 4.63509 11.475 4.63509Z" fill="#F36223"/>
<path d="M23.2349 9.885C19.7549 9.495 16.2449 9.495 12.7649 9.885C13.1399 7.83 13.6199 5.775 14.2949 3.795C14.3249 3.675 14.3099 3.585 14.3249 3.465C15.5099 3.18 16.7249 3 17.9999 3C19.2599 3 20.4899 3.18 21.6599 3.465C21.6749 3.585 21.6749 3.675 21.7049 3.795C22.3799 5.79 22.8599 7.83 23.2349 9.885Z" fill="#F36223"/>
<path d="M9.885 23.2349C7.815 22.8599 5.775 22.3799 3.795 21.7049C3.675 21.6749 3.585 21.6899 3.465 21.6749C3.18 20.4899 3 19.2749 3 17.9999C3 16.7399 3.18 15.5099 3.465 14.3399C3.585 14.3249 3.675 14.3249 3.795 14.2949C5.79 13.6349 7.815 13.1399 9.885 12.7649C9.51 16.2449 9.51 19.7549 9.885 23.2349Z" fill="#F36223"/>
<path d="M33 17.9999C33 19.2749 32.82 20.4899 32.535 21.6749C32.415 21.6899 32.325 21.6749 32.205 21.7049C30.21 22.3649 28.17 22.8599 26.115 23.2349C26.505 19.7549 26.505 16.2449 26.115 12.7649C28.17 13.1399 30.225 13.6199 32.205 14.2949C32.325 14.3249 32.415 14.3399 32.535 14.3399C32.82 15.5249 33 16.7399 33 17.9999Z" fill="#F36223"/>
<path d="M23.2349 26.115C22.8599 28.185 22.3799 30.225 21.7049 32.205C21.6749 32.325 21.6749 32.415 21.6599 32.535C20.4899 32.82 19.2599 33 17.9999 33C16.7249 33 15.5099 32.82 14.3249 32.535C14.3099 32.415 14.3249 32.325 14.2949 32.205C13.6349 30.21 13.1399 28.185 12.7649 26.115C14.5049 26.31 16.2449 26.445 17.9999 26.445C19.7549 26.445 21.5099 26.31 23.2349 26.115Z" fill="#F36223"/>
<path d="M23.645 23.645C19.8934 24.1183 16.1066 24.1183 12.355 23.645C11.8817 19.8934 11.8817 16.1066 12.355 12.355C16.1066 11.8817 19.8934 11.8817 23.645 12.355C24.1183 16.1066 24.1183 19.8934 23.645 23.645Z" fill="#F36223"/>
</svg>
