<svg width="36" height="36" viewBox="0 0 36 36" fill="none" xmlns="http://www.w3.org/2000/svg">
<path opacity="0.4" d="M27.5699 19.26V26.655C27.5699 28.56 26.0849 30.6 24.2999 31.2L19.5149 32.79C18.6749 33.075 17.3099 33.075 16.4849 32.79L11.6999 31.2C9.89993 30.6 8.42993 28.56 8.42993 26.655L8.44493 19.26L15.0749 23.58C16.6949 24.645 19.3649 24.645 20.9849 23.58L27.5699 19.26Z" fill="#F36223"/>
<path d="M29.97 9.69009L20.985 3.79509C19.365 2.73009 16.695 2.73009 15.075 3.79509L6.04503 9.69009C3.15003 11.5651 3.15003 15.8101 6.04503 17.7001L8.44503 19.2601L15.075 23.5801C16.695 24.6451 19.365 24.6451 20.985 23.5801L27.57 19.2601L29.625 17.9101V22.5001C29.625 23.1151 30.135 23.6251 30.75 23.6251C31.365 23.6251 31.875 23.1151 31.875 22.5001V15.1201C32.475 13.1851 31.86 10.9351 29.97 9.69009Z" fill="#F36223"/>
</svg>
