<svg width="37" height="36" viewBox="0 0 37 36" fill="none" xmlns="http://www.w3.org/2000/svg">
<path d="M14.4799 19.92H19.1149V30.72C19.1149 32.31 21.0949 33.06 22.1449 31.86L33.4999 18.96C34.4899 17.835 33.6949 16.08 32.1949 16.08H27.5599V5.27995C27.5599 3.68995 25.5799 2.93995 24.5299 4.13995L13.1749 17.04C12.1999 18.165 12.9949 19.92 14.4799 19.92Z" fill="#F36223"/>
<path opacity="0.4" d="M13.25 7.125H2.75C2.135 7.125 1.625 6.615 1.625 6C1.625 5.385 2.135 4.875 2.75 4.875H13.25C13.865 4.875 14.375 5.385 14.375 6C14.375 6.615 13.865 7.125 13.25 7.125Z" fill="#F36223"/>
<path opacity="0.4" d="M11.75 31.125H2.75C2.135 31.125 1.625 30.615 1.625 30C1.625 29.385 2.135 28.875 2.75 28.875H11.75C12.365 28.875 12.875 29.385 12.875 30C12.875 30.615 12.365 31.125 11.75 31.125Z" fill="#F36223"/>
<path opacity="0.4" d="M7.25 19.125H2.75C2.135 19.125 1.625 18.615 1.625 18C1.625 17.385 2.135 16.875 2.75 16.875H7.25C7.865 16.875 8.375 17.385 8.375 18C8.375 18.615 7.865 19.125 7.25 19.125Z" fill="#F36223"/>
</svg>
